<?xml version="1.0" encoding="iso-8859-1"?>
<!-- Generator: Adobe Illustrator 18.1.1, SVG Export Plug-In . SVG Version: 6.00 Build 0)  -->
<svg xmlns="http://www.w3.org/2000/svg" xmlns:xlink="http://www.w3.org/1999/xlink" version="1.1" id="Capa_1" x="0px" y="0px" viewBox="0 0 56.158 56.158" style="enable-background:new 0 0 56.158 56.158;" xml:space="preserve">
<g>
	<g>
		<path d="M13.625,19.247c1.11-0.34,2.369-0.726,4.687-0.726c0.428,0,0.887,0.013,1.364,0.039    c3.129,0.171,5.502,2.162,7.039,3.993c0.71,0.847,1.694,0.861,2.423,0.031c1.61-1.837,4.074-3.854,7.217-4.024    c0.479-0.026,0.938-0.039,1.365-0.039c2.318,0,3.576,0.386,4.688,0.726c0.422,0.13,0.816,0.251,1.253,0.347    c0.7,0.155,0.776-0.556,0.036-1.376c-3.448-3.818-8.762-6.267-14.725-6.267c-5.756,0-10.907,2.28-14.359,5.871    c-0.766,0.797-1.23,1.499-1.145,1.473C13.52,19.279,13.573,19.263,13.625,19.247z" fill="#FFFFFF"/>
		<path d="M55.012,20.489c-2.666,1.093-6.785,1.077-9.57,1.001c-3.481-0.096-3.721-1.526-8.969-1.24    c-3.469,0.189-6.08,2.983-7.453,4.856c-0.652,0.891-1.483,0.875-2.112-0.033c-1.296-1.873-3.775-4.635-7.224-4.823    c-5.248-0.286-5.486,1.145-8.969,1.24c-2.784,0.076-6.904,0.092-9.57-1.001c-1.021-0.419-1.451-0.176-0.909,0.786    c1.056,1.872,3.441,4.783,8.619,6.799c0,0,0.198,0.058,0.552,0.136c0.307,0.068,0.097,0.893-0.234,1.946    c-0.287,0.912-0.442,1.882-0.442,2.889c0,5.343,4.332,9.675,9.675,9.675c1.327,0,2.59-0.271,3.739-0.757    c1.018-0.431,1.573-1.276,1.357-1.663c-0.217-0.386,0.032-1.488,0.555-2.461l2.984-5.561c0.522-0.973,1.371-0.975,1.895-0.001    l3.093,5.737c0.522,0.974,0.806,2.047,0.631,2.4c-0.176,0.354,0.419,1.165,1.439,1.585c1.127,0.463,2.36,0.72,3.655,0.72    c5.343,0,9.675-4.332,9.675-9.676c0-1.007-0.154-1.977-0.441-2.889c-0.331-1.055-0.543-1.878-0.235-1.946    c0.353-0.079,0.552-0.136,0.552-0.136c5.178-2.018,7.562-4.927,8.618-6.799C56.464,20.313,56.034,20.07,55.012,20.489z     M19.059,33.942c-0.888,0-1.611-0.725-1.611-1.614c0-0.889,0.724-1.614,1.611-1.614c0.891,0,1.615,0.725,1.615,1.614    C20.674,33.217,19.949,33.942,19.059,33.942z M36.169,33.942c-0.892,0-1.612-0.725-1.612-1.614c0-0.889,0.723-1.614,1.612-1.614    s1.612,0.725,1.612,1.614C37.781,33.217,37.059,33.942,36.169,33.942z" fill="#FFFFFF"/>
		<path d="M28.483,34.584c-0.263-0.485-0.686-0.485-0.947,0.001L25.58,38.23    c-0.261,0.486-0.254,1.271,0.016,1.754l2.162,3.867c0.27,0.482,0.688,0.473,0.933-0.021l1.843-3.719    c0.245-0.494,0.231-1.29-0.03-1.775L28.483,34.584z" fill="#FFFFFF"/>
	</g>
</g>
<g>
</g>
<g>
</g>
<g>
</g>
<g>
</g>
<g>
</g>
<g>
</g>
<g>
</g>
<g>
</g>
<g>
</g>
<g>
</g>
<g>
</g>
<g>
</g>
<g>
</g>
<g>
</g>
<g>
</g>
</svg>
